<?xml version="1.0" standalone="no"?><!DOCTYPE svg PUBLIC "-//W3C//DTD SVG 1.1//EN" "http://www.w3.org/Graphics/SVG/1.1/DTD/svg11.dtd"><svg t="1663249821596" class="icon" viewBox="0 0 1145 1024" version="1.1" xmlns="http://www.w3.org/2000/svg" p-id="2356" xmlns:xlink="http://www.w3.org/1999/xlink" width="167.724609375" height="150"><path d="M647.991005 79.138756m-79.138756 0a79.138756 79.138756 0 1 0 158.277512 0 79.138756 79.138756 0 1 0-158.277512 0Z" p-id="2357" data-spm-anchor-id="a313x.7781069.0.i4" class="selected" fill="#ffffff"></path><path d="M388.421627 440.91866l42.880383-146.574162a19.990431 19.990431 0 0 1 14.688995-13.866029l48.421052-11.177034c3.425837-0.794258 6.45933 2.344498 5.55024 5.741627L438.364211 506.870813c0.086124 23.559809 4.258373 44.047847 19.789473 56.057417l-41.454545 165.110048-224.229665 1.645933c-41.454545 8.947368-37.100478 80.555024 0 86.210526h258.622009c21.320574-3.397129 36.736842-19.167464 45.224881-49.464115l35.330143-127.186603 114.4689 108.344498 67.83732 242.602871c27.636364 27.952153 84.794258 14.133971 81.971292-29.205742l-65.952153-252.497608-139.751196-137.923445a15.257416 15.257416 0 0 1-4.028708-14.775119l35.416268-133.712919 174.29665-1.885167c26.851675 2.354067 40.038278-51.349282 0-61.24402l-156.392344 0.937799c12.248804-49.933014 32.143541-97.617225 22.61244-128.133971-12.995215-25.435407-32.210526-44.641148-62.995215-52.287081-7.263158-1.808612-14.880383-1.684211-22.114833 0.239234l-180.526316 48.086125a20.422967 20.422967 0 0 0-14.440191 14.363636l-49.674641 182.746412c-10.373206 30.62201 42.861244 49.942584 56.047847 16.019138z" p-id="2358" data-spm-anchor-id="a313x.7781069.0.i2" class="selected" fill="#ffffff"></path><path d="M2.613014 593.08134h408.421053l-13.655502 37.68421H2.613014zM2.613014 786.220096H126.507751l11.779905 32.507177H2.613014zM533.359426 786.373206h78.822966l13.511962 32.038277H519.541244zM676.718278 593.08134l33.454545 37.68421h387.69378v-37.68421zM790.565167 786.373206l11.311005 32.038277h296.77512v-32.038277zM831.235024 976.057416h267.416268v34.392345H818.517321zM2.613014 975.588517h660.918661l15.550239 31.090909H2.613014z" p-id="2359" data-spm-anchor-id="a313x.7781069.0.i3" class="selected" fill="#ffffff"></path></svg>