<svg xmlns="http://www.w3.org/2000/svg" width="200" height="200" viewBox="0 0 200 200">
  <defs>
    <style>
      .a {
        fill: none;
      }

      .b {
        fill: #fff;
      }
    </style>
  </defs>
  <g>
    <circle class="a" cx="100" cy="100" r="100"/>
    <g>
      <path class="b" d="M171.7372,51.1644a6.25,6.25,0,0,0-8.3984-2.7545l-5.563,2.5464c4.478,1.5966,9.54,3.4023,14.2788,5.0949A6.2259,6.2259,0,0,0,171.7372,51.1644Z"/>
      <path class="b" d="M123.6684,159.9738l-3.4776,13.2208a7.4906,7.4906,0,0,0,3.4776-13.2208Z"/>
      <path class="b" d="M80.7577,158.3708l6.4771-36.8686,3.6284-.4957-8.5781,47.5382,15.4712,2.1285,4.7885-20.3509,2.3643-8.6805L111.29,118.216a45.759,45.759,0,0,0,.8975-4.9543l-.8252-53.4436,5.501-5.7615L106.15,50.6954a13.5856,13.5856,0,0,0-4.8887-.7568L78.2821,50.9547a13.2788,13.2788,0,0,0-4.7568,1.5336L45.703,68.2247,19.266,58.5981h0A6.25,6.25,0,0,0,14.5321,70.167h0l29.0323,13.23.0009.0005a7.4754,7.4754,0,0,0,5.793-.05l.0132.0251L70.6772,73.16l4.48,77.4655a8.1269,8.1269,0,0,0,4.9683,7.4887Z"/>
      <circle class="b" cx="137.5336" cy="35.0883" r="12.5"/>
      <path class="b" d="M62.8583,92.6954A6.2516,6.2516,0,0,0,68.6869,98l-.7558-12.385A6.2461,6.2461,0,0,0,62.8583,92.6954Z"/>
      <circle class="b" cx="90.14" cy="32.5883" r="12.5"/>
      <path class="b" d="M79.74,181.2228l-.8144,4.0563a7.5,7.5,0,1,0,14.6572,3.189l1.2134-5.1738-.0479-.0066Z"/>
      <path class="b" d="M98.2294,183.7666s-.4741,2.1167-.51,2.3931a7.4986,7.4986,0,0,0,14.7188,2.7508l.81-3.0777-14.9688-2.0594Z"/>
      <path class="b" d="M155.9613,145.639l1.5284-29.5507.9873-43.3628,16.4975,4.749-8.3594,21.6874a6.25,6.25,0,0,0,11.4786,4.9492h0l13.77-28.7808a7.5,7.5,0,0,0-3.9175-9.8566c-.3262-.1406-32.0923-11.486-34.51-12.3482a15.8335,15.8335,0,0,0-3.4467-.6931h-23a8.82,8.82,0,0,0-6.12,2.5014l-.0029-.0028-5.9839,6.2676.3491,22.5874,3.0972-2.8328.1523,33.4387c-2.0253,5.5916-7.43,20.5175-10.23,28.2961-1.0323,2.8676-2.6768,8.978-2.6768,8.978l-4.4556,19.47,15.4351,2.1236,5.521-20.99,15.2534-31.5226.2495-.5152.1143-.2362.3774,7.2558,1.3042,25.0866a8.12,8.12,0,0,0,6.7935,8.0355l29.9692,4.451a100.2981,100.2981,0,0,0,9.8364-13.7339Z"/>
      <path class="b" d="M117.8632,176.9727l-37.6968-5.1863a.7666.7666,0,0,0-.8613.653l-.5967,4.3368a.7669.7669,0,0,0,.6533.8614l37.6968,5.1864a.77.77,0,0,0,.8613-.6531l.5967-4.3368A.7669.7669,0,0,0,117.8632,176.9727Z"/>
    </g>
  </g>
</svg>
