<svg xmlns="http://www.w3.org/2000/svg" width="200" height="200" viewBox="0 0 200 200">
  <defs>
    <style>
      .a {
        fill: none;
      }

      .b {
        fill: #fff;
      }
    </style>
  </defs>
  <g>
    <circle class="a" cx="100" cy="100" r="100"/>
    <g>
      <circle class="b" cx="115.539" cy="74.0812" r="14.3565" transform="translate(7.2191 158.367) rotate(-70.5543)"/>
      <g>
        <path class="b" d="M172.8919,127.7557c.1368.0825.252.1538.3609.2205C173.0531,127.8534,172.8919,127.7557,172.8919,127.7557Z"/>
        <path class="b" d="M173.7962,128.3053c.41.2475.28.168,0,0Z"/>
        <path class="b" d="M122.2855,149.9349C120.6366,132.9,127,122.901,128.7665,120.2556l38.332,17.0555a5.5872,5.5872,0,0,0,5.7934-9.5554L148.9212,111.742l-18.7744-12.43c-15.86-10.4833-27.5693-8.9287-31.7011,3.0727a75.9641,75.9641,0,0,0-2.7564,14.6538L83.4686,130.8213a5.5859,5.5859,0,1,0,8.0249,7.7723l3.7627-3.5564c.0928,1.6336.2129,3.2631.377,4.87.1879,1.8548.4194,3.6686.6792,5.426-.0376.0295-.0782.0511-.1158.0821L74.8919,163.8767a8.8893,8.8893,0,0,0-.414,13.6461l17.5234,22.1586Q95.96,199.9946,100,200c2.7773,0,5.5268-.1186,8.247-.3407a6.556,6.556,0,0,0-.7651-1.4918L93.4959,174.4248l8.856-4.5176c3.0166,8.2941,7.6079,16.6437,12.0093,24.3147q1.25,2.1786,2.5527,4.3467a99.2644,99.2644,0,0,0,17.9126-4.8051c-1.02-2.3295-2.0063-4.6677-2.9375-7.0182A142.2058,142.2058,0,0,1,122.2855,149.9349Z"/>
        <path class="b" d="M79.5111,22.8356V2.1045q-1.8127.3776-3.6.8234V22.8356Z"/>
      </g>
      <rect class="b" x="75.6413" y="16.7755" width="3.6001" height="12.9603" transform="translate(105.5181 -52.571) rotate(93.6034)"/>
      <path class="b" d="M78.6875,69.908c-9.2359.0005-19.4526-1.7451-26.4092-6.9657l-.1436-.1079-.0941-.1533c-3.1143-5.0875,2.9931-27.4235,20.4312-39.887-1.6983-1.2421-5.5791-1.2893-7.3187-.7418l-.3589.1129-.3378-.1661a2.6463,2.6463,0,0,1-1.679-2.6429c.1854-1.6437,1.9691-2.9825,4.8929-3.6729l.1344-.0316a8.8989,8.8989,0,0,0,1.4835-.4347,2.7061,2.7061,0,0,0-.3387-.4145c-1.6565-1.7226-1.0635-2.8366-.7317-3.2354.9144-1.1,3.0528-.88,5.2.537l.7675.5118a8.6285,8.6285,0,0,0,2.32,1.3012,3.68,3.68,0,0,0,.3709-1.2595c.4062-2.3367,1.6455-3.0927,2.3482-3.335a2.6769,2.6769,0,0,1,2.6966.565,3.4255,3.4255,0,0,1,.9042,3.3924c-.1529.6546.123.8616.2267.94a2.8976,2.8976,0,0,0,2.8628-.2557c2.35-1.3182,4.1883-.57,5.05.4719.946,1.1447,1.1847,3.1487-.4154,5.0457l-.313.3713-.4843-.04c-2.3977-.2037-5.7842,1.1585-6.945,3.1028,8.9426,6.7987,17.5506,22.3875,17.07,42.5754l-.0115.5-.4213.2694C96.62,68.0679,88.1708,69.908,78.6875,69.908ZM53.5631,61.5548c12.95,9.5415,38.4293,6.5645,44.4458,3.3671.313-19.7119-8.2367-34.744-16.9172-40.9367l-.565-.4026.2185-.6586c.9965-3.0037,5.15-5.0118,8.5084-5.0118.0426,0,.0849.0005.1266.0009a1.9059,1.9059,0,0,0,.1364-2.2793c-.5348-.6468-1.5625-.6582-2.6815-.03a4.6377,4.6377,0,0,1-4.9121.1193,2.6675,2.6675,0,0,1-.9277-2.87,1.5727,1.5727,0,0,0-.3327-1.5684.8139.8139,0,0,0-.8239-.1845c-.5215.18-.9364.8831-1.1094,1.8805-.1777,1.0208-.5091,2.2467-1.5074,2.6736-1.1516.4916-2.3174-.2919-4.0836-1.4766l-.7546-.503a4.2791,4.2791,0,0,0-2.62-.9111,2.6246,2.6246,0,0,0,.5411.7371,2.4893,2.4893,0,0,1,.8684,2.2638c-.3254,1.1038-1.6532,1.416-2.9375,1.718l-.1327.0312c-2.6213.6187-3.4075,1.6143-3.4571,2.054a.6842.6842,0,0,0,.3566.5769c2.6948-.6623,8.043-.4613,9.6908,2.3345l.4475.7587-.7284.4957C57.5141,35.2337,51.2608,57.0832,53.5631,61.5548Z"/>
      <path class="b" d="M92.17,57.8848c-1.5536,6.1617-9.8463,5.8175-18.5977,3.6109s-14.6474-5.44-13.0938-11.6015,9.9074-9.3679,18.6588-7.1614S93.7232,51.7231,92.17,57.8848Z"/>
    </g>
  </g>
</svg>
