<svg xmlns="http://www.w3.org/2000/svg" width="200" height="200" viewBox="0 0 200 200">
  <defs>
    <style>
      .a {
        fill: none;
      }

      .b {
        fill: #fff;
      }
    </style>
  </defs>
  <g>
    <circle class="a" cx="100" cy="100" r="100"/>
    <g>
      <circle class="b" cx="123.1154" cy="35.358" r="12.5"/>
      <path class="b" d="M151.7274,141.9683l-11.6147-28.4366.9677-42.5082,25.7549,5.0287.0044-.0186a7.493,7.493,0,0,0,7.936-11.4509l-18.687-25.8606h0a6.25,6.25,0,0,0-10.4106,6.9187l6.7353,11.051-17.8754-4.766-.0015.0058a8.7524,8.7524,0,0,0-1.9653-.23h-20a8.7007,8.7007,0,0,0-5,1.5748l-.0493-.0693-25.47,19.3092L59.6962,58.4322h0a6.25,6.25,0,0,0-7.0723,10.307h0l25.5811,19.068a7.4962,7.4962,0,0,0,8.5488-.0515l.0044.0064,17.4248-11.44.86,37.7581-9.538,32.8144a8.0992,8.0992,0,0,0-.4458,3.1975l2.9809,38.64a7.5,7.5,0,1,0,14.9722-.9123l-1.6489-36.8323,11.42-28.0827L138.14,151.6205l.0171-.008a8.0888,8.0888,0,0,0,4.3608,4.1236l31.2183,11.8082a100.416,100.416,0,0,0,9.6914-12.402Z"/>
      <path class="b" d="M53.5905,54.6938H23.9938s1.5855,28.4077-10.0417,37.0717H43.5487C53.9428,87.6819,53.5905,54.6938,53.5905,54.6938Zm-4.6,16.5963c-1.761,12.6616-4.8284,16.0674-6.2552,16.9756H21.4831c2.58-4.4463,4.3623-10.4107,5.3213-17.8365a97.974,97.974,0,0,0,.7639-12.2353H50.04A125.1162,125.1162,0,0,1,48.9905,71.29Z"/>
    </g>
  </g>
</svg>
