<svg xmlns="http://www.w3.org/2000/svg" width="200" height="200" viewBox="0 0 200 200">
  <defs>
    <style>
      .a {
        fill: none;
      }

      .b {
        fill: #fff;
      }
    </style>
  </defs>
  <title>pict</title>
  <g>
    <circle class="a" cx="100" cy="100" r="100"/>
    <g>
      <path class="b" d="M56.3035,133.4712a6.3922,6.3922,0,1,0,6.8139,5.9429A6.3937,6.3937,0,0,0,56.3035,133.4712Z"/>
      <path class="b" d="M80.1355,131.5572l.8242,4.7886,2.3174-8.65a3.193,3.193,0,0,0-3.1416,3.8611Z"/>
      <path class="b" d="M87.11,104.4727a3.9138,3.9138,0,0,0,1.5068,3.061l1.8677-6.97A3.9229,3.9229,0,0,0,87.11,104.4727Z"/>
      <polygon class="b" points="103.931 99.865 99.079 100.112 96.808 108.583 109.669 109.061 103.931 99.865"/>
      <path class="b" d="M141.4714,73.6735a6.392,6.392,0,1,0,8.0127,4.1849A6.3917,6.3917,0,0,0,141.4714,73.6735Z"/>
      <path class="b" d="M103.0793,126.2193a6.3923,6.3923,0,1,0,7.68,4.7686A6.3926,6.3926,0,0,0,103.0793,126.2193Z"/>
      <path class="b" d="M128.9792,166.2727l-12.4531-25.18a4.4757,4.4757,0,0,0-6.04-1.8907l-4.1406,2.1665-16.76,1.4349-.9165-3.6061L85.63,150.5364a3.8169,3.8169,0,0,0,1.3731.124l9.7915.0326-.9805.8328L81.27,156.8263a3.1969,3.1969,0,1,0,1.9522,6.0885l15.7236-4.3705a3.8208,3.8208,0,0,0,1.21-.65l.0019.0027,5.5625-4.1118,8.7515,15.8376L104.196,179.7414l.002.0026a4.15,4.15,0,0,0-1.3443,3.779l2.95,16.3052q3.9177-.2243,7.75-.746l-2.14-14.4837,11.3184-9.047,7.0581,11.3277,4.1445,7.2108q3.8181-1.3773,7.4878-3.0493l-4.36-8.1867S129.0134,166.3375,128.9792,166.2727Z"/>
      <path class="b" d="M105.7141,75.347l11.2324,8.7457,5.7681,4.4919c.7324-2.6591,1.2729-5.0735,1.1352-5.8564l-1.2407-3.7615-1.3857-.8956-13.0469-8.43a3.01,3.01,0,0,0-.8228-.4119Z"/>
      <path class="b" d="M61.3308,185.5759c-.0068-1.7565-1.0708-2.9763-3.7168-4.8637l-10.76-8.1847,6.4385-7.9624,3.353,1.5514a2.9227,2.9227,0,1,0,2.6856-5.1919l-2.1133-1.2135.9429-1.1663,10.04,3.5227,5.3623,1.8823,1.7481-6.5243-4.44-2.0128-10.3027-4.6695c-14.3765-6.8115-20.1724-2.267-22.7925,2.4363l-10.2,15.7742A100.1968,100.1968,0,0,0,61.134,192.1654C61.2644,188.63,61.3616,185.7025,61.3308,185.5759Z"/>
      <path class="b" d="M86.2307,165.4375a2.9031,2.9031,0,0,0,.1187-1.7994l-2.69.7479a4.7247,4.7247,0,0,1-1.4136.2168q-.1918,0-.3808-.0152l-.5576,2.0806,1.1225.394A2.9232,2.9232,0,0,0,86.2307,165.4375Z"/>
      <path class="b" d="M128.5466,68.5077l-6.1411-14.2684a3.01,3.01,0,0,0-5.6294,2.135L121.64,71.1269l3.6489,11.0671c.7632,1.8512-2.9136,12.8941-3.61,14.76s-1.6958,2.1806-2.6762,1.3894L108.3171,86.7575a4.7891,4.7891,0,0,0-2.9883-1.6177L85.1609,83.32a3.9248,3.9248,0,0,0-1.0484,7.7793l18.1119,3.2561,13.311,21.3369c2.6592,3.4151,8.0278,3.6682,11.37.8393,2.7486-2.3291,10.9175-13.174,11.2183-19.682.1992-4.3122-1.7183-10.7417-4.97-17.6384Z"/>
      <polygon class="b" points="115.809 31.744 114.416 31.371 116.807 22.45 134.774 19.142 120.868 7.294 121.165 6.185 119.189 5.655 112.44 30.841 110.868 30.42 96.824 82.832 101.995 83.299 115.809 31.744"/>
      <path class="b" d="M77.741,161.315a4.73,4.73,0,0,1,3.0292-5.94l2.188-.7975L98.7805,95.2948l-5.0522-.9082L66.9817,194.4128q2.4141.8442,4.8828,1.5678l8.5107-31.762A4.7165,4.7165,0,0,1,77.741,161.315Z"/>
    </g>
  </g>
</svg>
