<svg xmlns="http://www.w3.org/2000/svg" width="200" height="200" viewBox="0 0 200 200">
  <defs>
    <style>
      .a {
        fill: none;
      }

      .b {
        fill: #fff;
      }
    </style>
  </defs>
  <g>
    <circle class="a" cx="100" cy="100" r="100"/>
    <g>
      <path class="b" d="M167.89,113.6374a9.7425,9.7425,0,1,0-9.3125-10.155A9.7423,9.7423,0,0,0,167.89,113.6374Z"/>
      <path class="b" d="M178.2542,162.2564c-3.8828-16.98-7.3374-32.0457-7.81-33.9672-1.14-4.6345-2.4175-10.2486-13.5967-14.8767-5.0727-2.0992-24.811-10.0647-24.811-10.0647L130.346,84.774a4.2269,4.2269,0,0,0-8.4444.3966l.0606,21.8086a5.1811,5.1811,0,0,0,2.7124,4.3084l.0083.0121,16.5215,9.8633,8.0508,28.4582L135.03,164.5523a9.9826,9.9826,0,0,0-3.7417,8.0811c0,.0062.4873,13.7107.7861,22.1119a99.29,99.29,0,0,0,12.228-5.0774l1.1768-14.0864,16.145-10.5534,3.6875,10.6975A100.59,100.59,0,0,0,178.2542,162.2564Z"/>
      <path class="b" d="M157.6931,111.373c.5738.2389,1.1182.48,1.6456.724l-10.5865-11.4224-1.6113-20.9221a4.2268,4.2268,0,0,0-8.4478.3126l-.1709,22.6863a5.1339,5.1339,0,0,0,.107.8781C144.8816,106.1572,154.4065,110.0132,157.6931,111.373Z"/>
      <circle class="b" cx="113.1912" cy="10.5235" r="7.5078"/>
      <path class="b" d="M68.3343,89.5275v2.1009A29.5641,29.5641,0,0,0,95.3108,62.3667h.0044V27.0411H36.179V62.3667h.0049A29.5633,29.5633,0,0,0,63.16,91.6284V89.5275ZM41.4422,70.3986h0a25.4672,25.4672,0,0,1-1.3614-8.0561l-.0048-.7832V30.938H91.4182v30.8l-.0044.6044a25.4619,25.4619,0,0,1-1.5014,8.461h0v0a25.8034,25.8034,0,0,1-7.06,10.4793h0l-.0005,0a25.5563,25.5563,0,0,1-34.4541-.2244l-.0005-.0005h0A25.7789,25.7789,0,0,1,41.4422,70.3986Z"/>
      <path class="b" d="M65.7473,91.7477c-.8725,0-1.7338-.0453-2.5874-.1193V192.9931q2.5533,1.0122,5.1744,1.8848V91.6284C67.4807,91.7024,66.6194,91.7477,65.7473,91.7477Z"/>
      <path class="b" d="M68.3343,91.6284V89.5275H63.16v2.1009c.8536.074,1.7149.1193,2.5874.1193S67.4807,91.7024,68.3343,91.6284Z"/>
      <path class="b" d="M69.2268,82.9884l-3.6665-6.35L61.9856,82.83a7.4712,7.4712,0,0,0,7.2412.1587Z"/>
      <path class="b" d="M62.8821,69.4,65.56,74.0393l2.7437-4.7518a7.4489,7.4489,0,0,0-5.4219.1129Z"/>
      <path class="b" d="M70.3206,82.2839a7.4929,7.4929,0,0,0-.833-12.4481L66.31,75.3386Z"/>
      <path class="b" d="M61.73,70.0038a7.4966,7.4966,0,0,0-.8135,12.0789L64.81,75.3386Z"/>
      <path class="b" d="M70.1956,59.3606a7.5034,7.5034,0,0,0,.1557-13.7282L66.31,52.6311Z"/>
      <path class="b" d="M61.8782,57.71,64.81,52.6311,61.7566,47.342A7.4869,7.4869,0,0,0,61.8782,57.71Z"/>
      <path class="b" d="M69.1038,45.1941a7.4144,7.4144,0,0,0-6.3589,1.2614L65.56,51.3319Z"/>
      <path class="b" d="M62.8836,58.5663a7.431,7.431,0,0,0,6.0473,1.2022L65.56,53.93Z"/>
      <path class="b" d="M81.33,61.9733a6.8172,6.8172,0,0,1,2.1963.3672L82.63,60.7879a8.0791,8.0791,0,0,0-8.8072,4.8546l.8672,1.5024A6.8648,6.8648,0,0,1,81.33,61.9733Z"/>
      <path class="b" d="M77.5169,76.0377l.4033-.6993-.5137-.89a6.8543,6.8543,0,0,1-2.9053-5.0322l-1.1884-2.0585a8.1035,8.1035,0,0,0,4.2041,8.68Z"/>
      <path class="b" d="M85.6609,61.9314a8.14,8.14,0,0,0-1.2436-.6462l.8081,1.4Z"/>
      <path class="b" d="M81.33,75.69a6.8208,6.8208,0,0,1-1.8579-.2627l.8627,1.4947a8.08,8.08,0,0,0,8.6114-5.1937l-.8931-1.5466A6.8688,6.8688,0,0,1,81.33,75.69Z"/>
      <path class="b" d="M88.0745,67.62l1.3306,2.3048a8.01,8.01,0,0,0-2.6963-7.21l-.6636,1.1494A6.8434,6.8434,0,0,1,88.0745,67.62Z"/>
      <path class="b" d="M52.45,53.93l-.3765.6524a6.8222,6.8222,0,0,1,.7012-.09Z"/>
      <path class="b" d="M59.6643,66.4258l-.6591-1.1418-1.87,3.24A8.2066,8.2066,0,0,0,59.6643,66.4258Z"/>
      <path class="b" d="M53.3094,68.1818a6.8638,6.8638,0,0,1-6.4541-4.561l-.21.3638,2.5093,4.3462a8.0191,8.0191,0,0,0,6.063.9155l.9907-1.716A6.8056,6.8056,0,0,1,53.3094,68.1818Z"/>
      <path class="b" d="M61.4529,61.0448l-1.6977,2.94.7158,1.24a8.1045,8.1045,0,0,0,.9961-3.9008C61.4671,61.23,61.4558,61.1382,61.4529,61.0448Z"/>
      <path class="b" d="M60.1375,60.7244l.99-1.7149a8.1646,8.1646,0,0,0-7.6123-5.8329l.7905,1.3694A6.8636,6.8636,0,0,1,60.1375,60.7244Z"/>
      <path class="b" d="M46.47,61.69c-.0068-.1221-.0186-.2428-.0186-.3664a6.8606,6.8606,0,0,1,3.7574-6.1094l1.0215-1.77a8.1646,8.1646,0,0,0-6.0782,7.8789c0,.0276.0039.0542.0044.0817l.7388,1.28Z"/>
      <path class="b" d="M79.4207,75.3384l5.8047-10.0545,2.8276,4.8977a6.66,6.66,0,0,0,.0215-2.5617l-2.0986-3.6352.0693-.12a6.864,6.864,0,0,0-2.519-1.5237l.9492,1.6442L78.67,74.0392l-3.98-6.8943a6.8377,6.8377,0,0,0-.2182,1.6864c0,.1974.0131.3917.03.585l2.9053,5.0322a6.8217,6.8217,0,0,0,2.0655.9787Z"/>
      <path class="b" d="M61.8782,57.71l-.7505,1.3a8.1369,8.1369,0,0,1,.3252,2.0353l1.4307-2.4785A7.5327,7.5327,0,0,1,61.8782,57.71Z"/>
      <path class="b" d="M50.2088,55.2144,46.47,61.69a6.8021,6.8021,0,0,0,.3853,1.9306l5.2182-9.0381A6.791,6.791,0,0,0,50.2088,55.2144Z"/>
      <path class="b" d="M88.9461,71.7282l.3584.62c.22-.5062.42-1.0223.6079-1.5447v0l-.5073-.8787A8.0637,8.0637,0,0,1,88.9461,71.7282Z"/>
      <path class="b" d="M49.3938,81.9314l3.0567-5.2939,5.8047,10.0547-.0176.031c.5947.1831,1.2007.3393,1.8125.4792l-.2945-.51,2.23-3.8625a7.4914,7.4914,0,0,1-1.0688-.747l-1.9116,3.31L53.2005,75.3383l3.9345-6.8146a8.1071,8.1071,0,0,1-1.9174.7226L52.4505,74.039l-3.2959-5.7082a8.1518,8.1518,0,0,1-3.9981-6.9253L40.09,52.6309l5.8052-10.0542L51.7,52.6311l-.47.8138a8.1165,8.1165,0,0,1,2.0791-.2788c.07,0,.1367.0087.206.0105l-.3149-.5455,5.8047-10.0544,2.7514,4.7653a7.5087,7.5087,0,0,1,.9883-.8865l-2.99-5.1781L65.56,31.2229l5.8052,10.0544-2.2617,3.9168a7.4443,7.4443,0,0,1,1.2475.4383l1.7642-3.0559L77.92,52.6311,72.1155,62.6856l-1.92-3.325a7.4386,7.4386,0,0,1-1.2647.4079l2.4346,4.2164L68.304,69.2875a7.4746,7.4746,0,0,1,1.1836.5483l2.6279-4.5516,1.1973,2.0736a8.08,8.08,0,0,1,.51-1.7153l-.957-1.6576L78.6707,53.93l3.959,6.8576a8.09,8.09,0,0,1,1.7876.4973l-4.9966-8.6541,5.8052-10.0545,5.8046,10.0543-5.37,9.3005a8.214,8.214,0,0,1,1.0479.7834l4.7094-8.1571V50.7042l-5.4423-9.4268,5.4423-9.4268V30.938h-.9731l-5.2192,9.04-5.22-9.04H77.3347l-5.2192,9.04-5.2192-9.04H64.2249l-5.22,9.04-5.2193-9.04H51.1145l-5.2192,9.04-5.22-9.04h-.6v1.5594l5.0688,8.78-5.0688,8.78v5.1468l5.0693,8.78-3.7031,6.4139h0q.2717.7983.5918,1.5733l3.8613-6.688L51.7,75.3383l-3.3023,5.72.0005.0005Q48.8853,81.5072,49.3938,81.9314ZM78.6707,31.2229l5.8047,10.0545L78.6707,51.3319,72.8655,41.2773Zm-26.2207,0,5.8052,10.0544L52.45,51.3319,46.6453,41.2774Z"/>
      <path class="b" d="M59.6643,66.4258l2.066,3.578A7.4656,7.4656,0,0,1,62.8821,69.4L60.471,65.2246A8.13,8.13,0,0,1,59.6643,66.4258Z"/>
      <path class="b" d="M54.3059,54.546a6.8488,6.8488,0,0,0-.9965-.0808c-.18,0-.3575.0133-.5347.0271l5.48,9.4924L56.2083,67.53a6.8605,6.8605,0,0,0,3.9595-6.2065c0-.2024-.0132-.4015-.03-.5994l-1.1323,1.9611Z"/>
      <path class="b" d="M77.5169,76.0377l-5.4014,9.3552-1.7949-3.109a7.4948,7.4948,0,0,1-1.0938.7045l2.1387,3.7038-.3525.61c.6508-.1369,1.291-.3022,1.9233-.4877l-.0708-.1221L78.67,76.6377l3.1758,5.5006q.514-.4154,1.0063-.8549l.0005,0-2.5181-4.3612A8.0914,8.0914,0,0,1,77.5169,76.0377Z"/>
      <polygon class="b" points="82.853 81.283 82.853 81.283 82.852 81.283 82.853 81.283"/>
      <polygon class="b" points="89.912 70.803 89.912 70.803 89.912 70.804 89.912 70.803"/>
      <polygon class="b" points="48.398 81.059 48.398 81.059 48.398 81.059 48.398 81.059"/>
      <polygon class="b" points="41.442 70.399 41.442 70.399 41.442 70.399 41.442 70.399"/>
      <path class="b" d="M69.2268,82.9884a7.4948,7.4948,0,0,0,1.0938-.7045l-4.01-6.9453,3.1773-5.5028a7.4746,7.4746,0,0,0-1.1836-.5483L65.56,74.0393,62.8821,69.4a7.4656,7.4656,0,0,0-1.1518.6034l3.08,5.3348-3.8935,6.7441a7.4914,7.4914,0,0,0,1.0688.747L65.56,76.6379Z"/>
      <path class="b" d="M61.8782,57.71a7.5327,7.5327,0,0,0,1.0054.8565L65.56,53.93l3.3706,5.8382a7.4386,7.4386,0,0,0,1.2647-.4079L66.31,52.6311l4.041-6.9987a7.4443,7.4443,0,0,0-1.2475-.4383L65.56,51.3319l-2.8154-4.8764a7.5087,7.5087,0,0,0-.9883.8865L64.81,52.6311Z"/>
      <path class="b" d="M74.4715,68.8313a6.8377,6.8377,0,0,1,.2182-1.6864l-.8672-1.5024a8.08,8.08,0,0,0-.51,1.7153l1.1884,2.0585C74.4846,69.223,74.4715,69.0287,74.4715,68.8313Z"/>
      <path class="b" d="M88.1883,68.8313a6.8383,6.8383,0,0,1-.1353,1.35l.8931,1.5466a8.0637,8.0637,0,0,0,.459-1.8035L88.0745,67.62A6.8791,6.8791,0,0,1,88.1883,68.8313Z"/>
      <path class="b" d="M86.0452,63.8642l.6636-1.1494a8.214,8.214,0,0,0-1.0479-.7834l-.4355.754-.8081-1.4a8.09,8.09,0,0,0-1.7876-.4973l.8965,1.5526A6.864,6.864,0,0,1,86.0452,63.8642Z"/>
      <path class="b" d="M77.4065,74.4485l.5137.89-.4033.6993a8.0914,8.0914,0,0,0,2.8178.8842l-.8627-1.4947A6.8217,6.8217,0,0,1,77.4065,74.4485Z"/>
      <path class="b" d="M59.6643,66.4258a8.13,8.13,0,0,0,.8067-1.2012l-.7158-1.24,1.6977-2.94a8.1369,8.1369,0,0,0-.3252-2.0353l-.99,1.7149c.0171.1979.03.397.03.5994A6.8605,6.8605,0,0,1,56.2083,67.53l-.9907,1.716a8.1071,8.1071,0,0,0,1.9174-.7226l1.87-3.24Z"/>
      <path class="b" d="M46.8553,63.6208A6.8021,6.8021,0,0,1,46.47,61.69l-.5747.9951-.7388-1.28a8.1518,8.1518,0,0,0,3.9981,6.9253l-2.5093-4.3462Z"/>
      <path class="b" d="M52.0735,54.5827,52.45,53.93l.3247.562c.1772-.0138.3545-.0271.5347-.0271a6.8488,6.8488,0,0,1,.9965.0808l-.7905-1.3694c-.0693-.0018-.1362-.0105-.206-.0105a8.1165,8.1165,0,0,0-2.0791.2788l-1.0215,1.77A6.791,6.791,0,0,1,52.0735,54.5827Z"/>
      <path class="b" d="M128.2068,53.1084a8.1574,8.1574,0,1,0-8.1577-8.157A8.1663,8.1663,0,0,0,128.2068,53.1084Zm0-15.0157a6.8584,6.8584,0,1,1-6.8584,6.8587A6.8664,6.8664,0,0,1,128.2068,38.0927Z"/>
    </g>
  </g>
</svg>
