<svg xmlns="http://www.w3.org/2000/svg" width="200" height="200" viewBox="0 0 200 200">
  <defs>
    <style>
      .a {
        fill: none;
      }

      .b {
        fill: #fff;
      }
    </style>
  </defs>
  <g>
    <circle class="a" cx="100" cy="100" r="100"/>
    <g>
      <circle class="b" cx="126.8774" cy="20.214" r="13.125"/>
      <circle class="b" cx="90.5085" cy="30.3414" r="12.5"/>
      <path class="b" d="M122.82,90.7255l-14.4222-33.981-.0066.0029a8.7425,8.7425,0,0,0-7.9269-5.0622s-21.1746-5-22.5-5a8.7434,8.7434,0,0,0-7.76,4.7175L59.7659,72.1151,50.77,56.7282h0a6.25,6.25,0,1,0-11.03,5.8811S53.5528,91.1715,53.637,91.33a7.4955,7.4955,0,0,0,13.1947.07l3.083-5.2014.55,24.1421v.0012c0,.21.0793,1.1865.1046,1.37l4.0343,35.1963.3621-1.0889,8.5732-29.2141,3.2957,1.1985-8.5281,29.0605L66.0784,183.6388a7.5,7.5,0,0,0,14.1556,4.9617l13.4074-36.3621,13.41-32.7351a13.9348,13.9348,0,0,0,.9129-4.1621l.0477-2.0957A9.74,9.74,0,0,1,101.9439,98.89l1.97-4.5786L89.7387,66.3593,92.88,64.8151h0l14.8955,29.3742-2.7094,6.2989a6.2491,6.2491,0,1,0,10.7156,6.4292s6.509-8.8675,6.79-9.3694A7.4828,7.4828,0,0,0,122.82,90.7255Z"/>
      <path class="b" d="M40.668,51.0651a9.7454,9.7454,0,0,1,13.1543,3.9492l4.0659,6.9551c.8274.3979,1.6565.7968,2.4784,1.1924L66.795,50.4142c.0913-.2019.197-.3958.2985-.5918L48.3714,42.5585a6.6841,6.6841,0,0,0-8.6553,9.0923A9.771,9.771,0,0,1,40.668,51.0651Z"/>
      <path class="b" d="M156.9524,87.4515s-10.4019-38.4494-10.4642-38.6032a9.3546,9.3546,0,0,0-7.5338-6.063c-.2133-.0285-25.3643-5.0833-25.4992-5.0833a11.12,11.12,0,0,0-4.9851,1.4473l-15.849,7.2075L100.88,48.192a12.266,12.266,0,0,1,10.6068,6.9063l.0128-.0042.1657.39c.06.1347.118.27.1729.4074l13.8493,32.6131,9.3883-4.5828-8.8739-25.7739,3.2772-1.2332L139.3925,85.71l-12.5656,6.1338A10.964,10.964,0,0,1,124.33,101.1l-6.9241,9.1075a6.6505,6.6505,0,0,0,3.3565-.5315L152.52,97.1483A8.0228,8.0228,0,0,0,156.9524,87.4515Z"/>
      <g>
        <path class="b" d="M148.6721,167.76,129.9548,148.889l-6.7778,16.8553L137.46,179.245A8.025,8.025,0,1,0,148.6721,167.76Z"/>
        <path class="b" d="M137.4547,122.9025c1.8263-2.8372,4.3308-9.3408,4.4823-11.6941l.5537-6.3411-20.3872,8.042a10.1119,10.1119,0,0,1-4.0332.8355h-.001a10.1715,10.1715,0,0,1-4.1352-.8821,9.6552,9.6552,0,0,1-2.4264.6147l-.0433,1.9065a13.4146,13.4146,0,0,1-1.21,5.5322l-5.3745,13.12-.1515,9.92a8.7655,8.7655,0,0,0,.1328,2.1523l1.258-3.5,7.9325-24.8039,3.3825.9135-8.0005,25.0159L95.4065,182.7582a8.0251,8.0251,0,0,0,15.0144,5.6724L125.7,149.88Z"/>
      </g>
      <g>
        <polygon class="b" points="101.378 155.799 97.716 151.526 96.904 153.507 91.503 168.154 95.404 172.419 101.378 155.799"/>
        <path class="b" d="M114.1941,188.4091a7.4884,7.4884,0,0,0,4.8875-12.3316Z"/>
      </g>
    </g>
  </g>
</svg>
