<svg xmlns="http://www.w3.org/2000/svg" width="200" height="200" viewBox="0 0 200 200">
  <defs>
    <style>
      .a {
        fill: none;
      }

      .b {
        fill: #fff;
      }
    </style>
  </defs>
  <g>
    <circle class="a" cx="100" cy="100" r="100"/>
    <path class="b" d="M134.9956,42.1283c1.3623.824,3.56-.3156,4.9087-2.5455s1.3369-4.7056-.0259-5.53-3.56.3156-4.9087,2.5454S133.6328,41.3043,134.9956,42.1283ZM65.0044,157.8717c-1.3628-.824-3.5606.3156-4.9087,2.5455s-1.3369,4.7055.0259,5.53,3.56-.3156,4.9087-2.5456S66.3672,158.6957,65.0044,157.8717ZM101.3711,32.3839c1.5923.0322,2.9258-2.0536,2.9785-4.659s-1.1953-4.7435-2.7871-4.7758-2.9258,2.0536-2.9785,4.6589S99.7788,32.3516,101.3711,32.3839ZM98.6289,167.6161c-1.5923-.0324-2.9258,2.0536-2.9785,4.6589s1.1948,4.7436,2.7871,4.7758,2.9258-2.0535,2.9785-4.6588S100.2212,167.6483,98.6289,167.6161ZM67.3794,40.7572c1.395-.7681,1.5068-3.2413.25-5.524s-3.4067-3.51-4.8018-2.7424-1.5068,3.2413-.25,5.524S65.9844,41.5253,67.3794,40.7572Zm65.2412,118.4855c-1.395.7682-1.5068,3.2413-.25,5.5241s3.4067,3.5105,4.8018,2.7424,1.5068-3.2413.25-5.524S134.0156,158.4746,132.6206,159.2427ZM36.5986,65.03c2.23,1.3484,4.7056,1.3368,5.53-.0259s-.3159-3.56-2.5454-4.9089-4.706-1.3369-5.53.0259S34.3687,63.6819,36.5986,65.03ZM163.4014,134.97c-2.23-1.3484-4.7056-1.3368-5.53.0259s.3159,3.5605,2.5454,4.909,4.7056,1.3368,5.53-.0259S165.6313,136.318,163.4014,134.97ZM22.9492,98.4376c-.0322,1.5921,2.0537,2.9257,4.6587,2.9785s4.7437-1.1951,4.7759-2.7872S30.33,95.7032,27.7251,95.65,22.9814,96.8455,22.9492,98.4376Zm144.667,2.9334c-.0322,1.5922,2.0537,2.9258,4.6587,2.9785s4.7437-1.195,4.7759-2.7871-2.0537-2.9257-4.6587-2.9785S167.6484,99.7789,167.6162,101.371Zm-126.8589,31.25c-.768-1.395-3.2417-1.5069-5.5239-.25s-3.5107,3.4067-2.7427,4.8018,3.2412,1.5069,5.5239.25S41.5254,134.0156,40.7573,132.6206ZM159.2427,67.3793c.768,1.395,3.2412,1.5069,5.5239.25s3.5107-3.4067,2.7427-4.8017-3.2412-1.5069-5.5239-.25S158.4746,65.9843,159.2427,67.3793Zm12.9018,17.8525c7.583-1.1894,8.8321-3.5118,8.4493-5.0655s-2.4708-3.1764-9.8355-.5614c-8.0215,2.8482-23.14,8.6844-23.14,8.6844S163.666,86.5615,172.1445,85.2318ZM27.8555,114.7681c-7.583,1.1894-8.8321,3.5118-8.4492,5.0656s2.4707,3.1763,9.8354.5613c8.0215-2.8482,23.1406-8.6844,23.1406-8.6844S36.334,113.4385,27.8555,114.7681Zm127.2392-63.63c5.9727-4.8218,5.8931-7.4574,4.7847-8.6116s-3.728-1.5154-8.7983,4.4317c-5.5225,6.4772-15.6983,19.0911-15.6983,19.0911S148.4175,56.5288,155.0947,51.1382ZM44.9053,148.8618c-5.9727,4.8217-5.8931,7.4574-4.7847,8.6116s3.728,1.5154,8.7983-4.4317c5.5225-6.4772,15.6983-19.0911,15.6983-19.0911S51.5825,143.4711,44.9053,148.8618ZM123.1206,20.2867c-1.5371-.4454-3.9863.5518-5.4043,8.2373-1.5439,8.3708-4.0493,24.3824-4.0493,24.3824s6.5283-14.7622,9.6157-22.7693C126.0444,22.9749,124.6572,20.7322,123.1206,20.2867ZM76.8794,179.7132c1.5371.4455,3.9863-.5517,5.4038-8.2372,1.5444-8.3708,4.05-24.3824,4.05-24.3824s-6.5283,14.7622-9.6157,22.7693C73.9556,177.0251,75.3428,179.2678,76.8794,179.7132ZM88.29,52.3821s-1.7281-16.0484-3.0577-24.5265c-1.1894-7.5834-3.5117-8.8323-5.0659-8.4495s-3.1758,2.4709-.561,9.8356C82.4531,37.2631,88.29,52.3821,88.29,52.3821ZM111.71,147.6179s1.7281,16.0483,3.0577,24.5264c1.1894,7.5835,3.5117,8.8324,5.0654,8.45s3.1763-2.4709.5615-9.8356C117.5469,162.7369,111.71,147.6179,111.71,147.6179ZM46.958,48.919c6.4775,5.5226,19.0913,15.6979,19.0913,15.6979S56.5288,51.5826,51.1382,44.9053c-4.8218-5.9729-7.4575-5.8932-8.6118-4.7848S41.0112,43.8485,46.958,48.919ZM153.042,151.0809c-6.4775-5.5226-19.0913-15.698-19.0913-15.698s9.52,13.0345,14.9111,19.7118c4.8218,5.9728,7.4575,5.8932,8.6118,4.7848S158.9888,156.1514,153.042,151.0809ZM28.5239,82.2834c8.3706,1.5441,24.3824,4.0493,24.3824,4.0493S38.144,79.8049,30.1372,76.7173c-7.1621-2.7616-9.4048-1.3748-9.8506.1622S20.8384,80.8657,28.5239,82.2834Zm142.9522,35.4331c-8.3706-1.5441-24.3823-4.0493-24.3823-4.0493s14.7622,6.5278,22.769,9.6153c7.1626,2.7618,9.4048,1.375,9.8506-.1621S179.1616,119.1342,171.4761,117.7165ZM91.8818,113.425c-.7553-.4567-6.7807,8.1252-13.2988,18.9036S67.5234,152,68.2788,152.457s6.5215-7.6963,13.0391-18.4747S92.6367,113.8817,91.8818,113.425Zm16.2364-26.85c.7553.4566,6.7807-8.1253,13.2983-18.9036S132.4761,48,131.7212,47.5429,125.2,55.2393,118.6821,66.0176,107.3633,86.1183,108.1182,86.575Zm-8.4361,29.1105c-.8823-.0179-1.81,10.427-2.0654,23.02s.2583,22.566,1.1406,22.5839,1.7993-9.9258,2.0547-22.519S100.5645,115.7034,99.6821,115.6855ZM101.2427,38.71c-.8823-.0179-1.7993,9.9259-2.0547,22.5191s.2475,23.0672,1.13,23.0851,1.81-10.427,2.0654-23.02S102.125,38.7282,101.2427,38.71Zm6.3247,75.0328c-.7735.4256,3.646,9.9349,9.7217,20.9686s11.5063,19.4137,12.2793,18.9881-3.4043-9.4959-9.48-20.53S108.34,113.3174,107.5674,113.7431ZM92.4326,86.2569c.773-.4257-3.646-9.9349-9.7217-20.9687S71.2046,45.8745,70.4316,46.3s3.4043,9.4958,9.48,20.53S91.66,86.6826,92.4326,86.2569Zm60.0244,45.4642c.4566-.7552-7.6963-6.5213-18.4746-13.0392s-20.1006-11.3189-20.5576-10.5637,8.1255,6.7807,18.9038,13.2985S152.0005,132.4763,152.457,131.7211ZM86.5752,91.8818c.4565-.7552-8.1255-6.7808-18.9038-13.2985S48,67.5237,47.543,68.2789,55.2393,74.8,66.0176,81.318,86.1182,92.637,86.5752,91.8818Zm74.7144,9.361c.018-.8824-9.9258-1.8-22.5191-2.0549s-23.0674.2478-23.085,1.13,10.4268,1.81,23.02,2.0651S161.2715,102.1251,161.29,101.2428ZM84.3145,99.6819c.018-.8823-10.4268-1.81-23.0206-2.065s-22.5659.258-22.5835,1.14,9.9258,1.8,22.5191,2.0549S84.2964,100.5643,84.3145,99.6819ZM153.7,70.4314c-.4258-.773-9.4956,3.4045-20.5293,9.48S113.3174,91.66,113.7432,92.4327s9.9345-3.6463,20.9687-9.7218S154.1255,71.2045,153.7,70.4314ZM46.3,129.5685c.4253.7731,9.4956-3.4045,20.5293-9.48s19.853-11.7483,19.4272-12.5213-9.9345,3.6463-20.9687,9.7217S45.8745,128.7955,46.3,129.5685Zm55.0874-24.3959c-.78.1923.8657,9.5985,3.6094,20.7362s5.5454,19.7891,6.3257,19.5969-.7564-9.1554-3.5-20.2931S102.168,104.98,101.3877,105.1726ZM98.8789,94.9885c.78-.1923-.8657-9.5985-3.6094-20.7362s-5.5459-19.789-6.3261-19.5968.7568,9.1553,3.5,20.2929S98.0986,95.1807,98.8789,94.9885Zm4.8867,8.8747c-.58.5567,5.5489,7.88,13.4937,16.1534s14.6972,14.365,15.2768,13.8084-5.2324-7.55-13.1777-15.8242S104.3452,103.3066,103.7656,103.8632ZM96.501,96.2979c.58-.5567-5.5493-7.88-13.4942-16.1534S68.31,65.78,67.73,66.3361s5.2329,7.55,13.1777,15.8241S95.9214,96.8545,96.501,96.2979Zm28.4321,12.4847c11.0171,3.1927,19.9107,5.0918,20.1343,4.32s-8.3071-3.9224-19.3242-7.1153S105.394,100.7684,105.17,101.54,113.9155,105.59,124.9331,108.7826Zm-49.6-17.4041c-11.0171-3.1928-19.9106-5.0919-20.1343-4.32s8.3067,3.9225,19.3242,7.1153,20.3492,5.2189,20.5728,4.447S86.3506,94.5713,75.3335,91.3785Zm29.8916,7.4477c.1924.78,9.5986-.8658,20.7363-3.6093s19.7891-5.5458,19.5972-6.3261-9.1558.7566-20.293,3.5S105.0332,98.0458,105.2251,98.8262ZM95.041,101.3349c-.1924-.78-9.5986.8658-20.7358,3.6093S54.5156,110.49,54.708,111.27s9.1553-.7566,20.293-3.5S95.2334,102.1152,95.041,101.3349Zm8.875-4.8867c.5567.58,7.8794-5.549,16.1533-13.4939s14.3648-14.6972,13.8081-15.2769-7.55,5.2329-15.8237,13.1777S103.3594,95.8685,103.916,96.4482Zm-7.5654,7.2647c-.5567-.58-7.88,5.549-16.1533,13.4938S65.832,131.904,66.3887,132.4836s7.5508-5.2328,15.8242-13.1776S96.9072,104.2926,96.3506,103.7129Zm5.2422-8.6694c.7719.2237,4.05-8.7455,7.2426-19.7627s5.0918-19.9107,4.32-20.1344-3.9224,8.307-7.1153,19.3242S100.8213,94.82,101.5928,95.0435Zm-2.9195,10.0741c-.7719-.2237-4.0493,8.7454-7.2421,19.7627s-5.0918,19.9107-4.32,20.1344,3.9224-8.3071,7.1153-19.3243S99.4453,105.3413,98.6733,105.1176Z"/>
  </g>
</svg>
