<svg xmlns="http://www.w3.org/2000/svg" width="200" height="200" viewBox="0 0 200 200">
  <defs>
    <style>
      .a {
        fill: none;
      }

      .b {
        fill: #fff;
      }
    </style>
  </defs>
  <g>
    <circle class="a" cx="100" cy="100" r="100"/>
    <path class="b" d="M174.289,124.0189l-22.9731-21.8057L121.8437,71.3677l20.5322-10.79,29.4825,1.03a6.25,6.25,0,1,0,.9257-12.4657h0L141.083,45.5351h0a7.4625,7.4625,0,0,0-4.34,1.0071L103.7006,61.1441l.0049.0108a8.715,8.715,0,0,0-2.3842,1.6853L88.9467,75.2144a17.0171,17.0171,0,0,0-1.205,1.5147L68.0722,107.5767l.0059.0039a7.5093,7.5093,0,0,0-.8467,1.6116L57.229,139.49A6.25,6.25,0,0,0,68.936,143.87l11.8813-28.3178L96.2744,94.59l28.3408,27.0791-7.3242,29.0141a8.081,8.081,0,0,0-.2119,3.9946l8.1381,37.8909a7.4557,7.4557,0,0,0,1.9214,3.7019,99.2437,99.2437,0,0,0,12.91-4.621,7.4718,7.4718,0,0,0-.1167-1.9937l-6.499-35.8548,11.47-31.3586,21.9634,16.905.0073-.0083a8.1115,8.1115,0,0,0,7.7827,1.5611l19.3076-6.6063a99.2675,99.2675,0,0,0,4.6641-17.735Z"/>
    <g>
      <circle class="b" cx="82.7101" cy="58.3199" r="12.5"/>
      <path class="b" d="M84.862,32.4482a9.6469,9.6469,0,1,0-6.8214,11.8151A9.6471,9.6471,0,0,0,84.862,32.4482ZM77.9663,43.9857s-4.71-3.0761-6.0481-8.0692,1.2032-10.0122,1.2032-10.0122,4.71,3.0763,6.048,8.0694S77.9663,43.9857,77.9663,43.9857Z"/>
      <path class="b" d="M98.0355,53.6958c-.22-.82-1.34-.8641-1.6816-1.612A14.9981,14.9981,0,0,0,67.782,59.74c.0774.83-.8791,1.4064-.6561,2.2384Z"/>
    </g>
    <ellipse class="b" cx="22.1841" cy="67.7272" rx="9.826" ry="6.6666"/>
  </g>
</svg>
