<svg xmlns="http://www.w3.org/2000/svg" width="200" height="200" viewBox="0 0 200 200">
  <defs>
    <style>
      .a {
        fill: none;
      }

      .b {
        fill: #fff;
      }
    </style>
  </defs>
  <g>
    <circle class="a" cx="100" cy="100" r="100"/>
    <g>
      <path class="b" d="M177.9943,148.2111l-9.2637-61.9227s-3.4008-7.21-6.9379-9.727c-3.4624-2.4638-9.1036-2.7166-16.7251-.4985l-.0083-.0117-10.2032,2.1427L119.2,67.85a4.0365,4.0365,0,0,0-4.3955-.2488A71.6709,71.6709,0,0,0,22.0031,37.4239,99.9816,99.9816,0,0,0,28.7809,170.19a71.6713,71.6713,0,0,0,95.0625-67.75c0-1.4885-.06-2.9623-.1494-4.4283.043.0263.0772.0607.1211.0856l17.6763,11.0463c2.3828,1.3463,4.3457.4173,6.7539-1.8755l.1977-.2013,1.74,12.0184L134.24,133.9725a14.219,14.219,0,0,0-3.249,4.6769l-10.1372,24.7934a5.2652,5.2652,0,0,0,9.5171,4.5072l11.9878-22.6756L158.1545,134.09l7.0434,20.4527a6.4358,6.4358,0,0,0,2.6236,4.0234l8.8452,5.6325a100.3251,100.3251,0,0,0,7.6831-10.4658ZM142.2267,98.4069,127.79,91.0653a4.0246,4.0246,0,0,0-4.7544.5982A71.1277,71.1277,0,0,0,119.8,78.7l10.2446,8.2555a7.6186,7.6186,0,0,0,5.7012,2.1343l9.7158-.3382.9,4.0777Z"/>
      <path class="b" d="M146.8762,72.1969a10.38,10.38,0,1,0-5.3521-13.6685A10.3841,10.3841,0,0,0,146.8762,72.1969Z"/>
    </g>
  </g>
</svg>
