<svg xmlns="http://www.w3.org/2000/svg" width="200" height="200" viewBox="0 0 200 200">
  <defs>
    <style>
      .a {
        fill: none;
      }

      .b {
        fill: #fff;
      }
    </style>
  </defs>
  <g>
    <circle class="a" cx="100" cy="100" r="100"/>
    <g>
      <path class="b" d="M103.6589,32.8006A13.9824,13.9824,0,1,0,118.5637,45.8,13.9857,13.9857,0,0,0,103.6589,32.8006Z"/>
      <polygon class="b" points="103.687 89.126 99.167 94.716 127.514 94.761 111.493 89.139 103.687 89.126"/>
      <path class="b" d="M52.8044,89.0441.61,88.96q-.3048,2.7765-.46,5.596l49.04.0791Z"/>
      <path class="b" d="M159.382,90.9627a8.4,8.4,0,0,1,.6607,3.8512l39.8281.0642c-.0947-1.88-.2461-3.7458-.4439-5.5975l-41.0634-.0662A8.4586,8.4586,0,0,1,159.382,90.9627Z"/>
      <path class="b" d="M61.9816,125.553l30.7739,14.5555,2.0762,29.8753a7.0941,7.0941,0,1,0,14.1856-.272s1.4345-35.2968,1.2871-35.9052c-.0127-3.2709-1.9937-5.5422-6.9219-9.057L83.3469,109.5085l21.0551-26.038,18.6958,6.56,26.4961,9.3009a5.4413,5.4413,0,1,0,4.0518-10.1L128.069,77.6381l-19.185-8.6953C82.113,56.259,71.3205,64.7214,66.4416,73.48l-37.59,58.1325L15.1086,152.8649a100.3661,100.3661,0,0,0,10.0273,13.4238L45.0275,144.297Z"/>
      <path class="b" d="M95.0519,99.8041l1.6387,1.1236a5.416,5.416,0,0,0,8.58-3.2021l-8.5269-.0137Z"/>
    </g>
  </g>
</svg>
