<svg xmlns="http://www.w3.org/2000/svg" width="200" height="200" viewBox="0 0 200 200">
  <defs>
    <style>
      .a {
        fill: none;
      }

      .b {
        fill: #fff;
      }
    </style>
  </defs>
  <g>
    <circle class="a" cx="100" cy="100" r="100"/>
    <g>
      <g>
        <g>
          <path class="b" d="M85.0191,77.9885,111.4859,57.25l.0469-.0342a12.1808,12.1808,0,0,1,3.8335-1.8876c.0537-.0156,1.7364-.4518,4.18-1.0718a16.0675,16.0675,0,0,1-8.6828-10.33,23.1377,23.1377,0,0,0-7.9473-1.4148c-15.16,0-27.45,14.8243-27.45,33.111,0,.8964.038,1.7816.096,2.66Z"/>
          <path class="b" d="M107.4441,108.2773l-.4187-18.3933-11.622,7.9009a10.911,10.911,0,0,1-6.4273,2.0718l-.1679-.0015-4.785-.225c4.9219,5.6376,11.57,9.1034,18.893,9.1034A23.0145,23.0145,0,0,0,107.4441,108.2773Z"/>
        </g>
        <circle class="b" cx="126.3016" cy="39.7572" r="12.5"/>
        <g>
          <circle class="b" cx="83.1513" cy="21.183" r="12.5"/>
          <g>
            <path class="b" d="M50.2406,76.3465,67.2277,64.7981,67.54,78.5327l4.5236-.1409c-.0582-.9153-.0975-1.8365-.0975-2.769,0-20.1875,13.8837-36.6109,30.95-36.6109.13,0,.2592.0052.3889.0071l-.8881-.9806a8.7294,8.7294,0,0,0-6.81-3.2615c-1.4874,0-21.5859,5.1089-22.3269,5.3128a8.7074,8.7074,0,0,0-2.8309,1.3769l-.0038-.0051L43.1247,62.8764l-29.1381.9073a6.25,6.25,0,0,0-.1008,12.4995h0s29.4151,1.4848,31.4,1.4848a8.0664,8.0664,0,0,0,4.9544-1.4215Z"/>
            <path class="b" d="M156.6377,60.2859a6.2445,6.2445,0,0,0-8.202-8.0381l-1.6285.5973Z"/>
            <path class="b" d="M90.5806,138.4254c-.011-.6547-1.3736-19.7871-2.1014-29.9695L102.502,126.52l5.17-8.2372-.1471-6.4571a26.3589,26.3589,0,0,1-4.6087.4078c-9.3924,0-17.8145-4.9811-23.4953-12.82l-11.4173-.5367.1037,4.5551v.0008c0,.4122.1933,1.9472.2376,2.149l5.7784,32.95L60.696,172.305a7.5,7.5,0,0,0,13.8475,5.7659l15.468-35.5344A10.9683,10.9683,0,0,0,90.5806,138.4254Z"/>
            <path class="b" d="M124.9375,156.2885a11.5655,11.5655,0,0,1-.41-2.966l-.117-2.3958-.9653-9.8279L112.334,155.3034l1.4,17.1669a7.4993,7.4993,0,0,0,12.1348-6.7039Z"/>
          </g>
        </g>
      </g>
      <path class="b" d="M144.4345,150.4159s1.7949-32.8028,1.8037-33.0259l.9057-39.3293,17.521,11.5025a7.5,7.5,0,0,0,10.4527-1.8007c.4712-.6678,9.2212-32.9671,9.2212-32.9671A6.25,6.25,0,1,0,172.39,51.1243v0l-7.0595,20.131L143.8886,55.0244a8.6986,8.6986,0,0,0-5.1314-1.6732c-1.4873,0-21.6533,5.1186-22.4228,5.34A8.7027,8.7027,0,0,0,113.6,60.04l-27.3247,21.41-29.1382.9073a6.25,6.25,0,0,0-.1006,12.5h0l31.87,1.4988a7.4576,7.4576,0,0,0,4.4848-1.4356h0l16.9868-11.5483.8169,35.8812L93.7763,147.0064v0a8.0836,8.0836,0,0,0-1.4287,5.4734l4.3369,38.5106a7.5,7.5,0,1,0,14.9287-1.46l-2.8789-35.3065L126.94,130.9513l1.0884,22.2821v0a8.0827,8.0827,0,0,0,2.07,5.4277l23.6587,25.6734a100.3315,100.3315,0,0,0,12.1177-9.1033Z"/>
    </g>
  </g>
</svg>
