<svg xmlns="http://www.w3.org/2000/svg" width="40" height="40" viewBox="0 0 120 120"><defs><style>.a{fill:#00b900;}.b{fill:#fff;}</style></defs><title>LINE</title><g><circle class="a" cx="60" cy="60" r="60"/><g><path class="b" d="M99.91,56.3973C99.91,38.539,82.0065,24.01,60,24.01c-22.0043,0-39.9092,14.5288-39.9092,32.3871,0,16.01,14.1981,29.418,33.3768,31.9531,1.3.28,3.0687.8568,3.516,1.9681a8.1976,8.1976,0,0,1,.1291,3.6085s-.4681,2.8161-.5695,3.4165C56.3691,98.3521,55.741,101.29,60,99.4949s22.9839-13.5334,31.357-23.171h-.0018C97.1388,69.9812,99.91,63.5446,99.91,56.3973"/><g><path class="a" d="M51.891,47.7676h-2.8a.7771.7771,0,0,0-.7774.7762v17.39a.7766.7766,0,0,0,.7774.7755h2.8a.7766.7766,0,0,0,.7774-.7755v-17.39a.7771.7771,0,0,0-.7774-.7762"/><path class="a" d="M71.1593,47.7676H68.36a.7767.7767,0,0,0-.7773.7762V58.875L59.6135,48.1128a.8257.8257,0,0,0-.0605-.0787l-.005-.005c-.0152-.0171-.0309-.0328-.0466-.0479l-.0145-.0132c-.0133-.012-.0271-.024-.0416-.0347l-.02-.0157c-.0132-.01-.0264-.0189-.04-.0278l-.0233-.0138c-.0139-.0082-.0277-.0164-.0416-.0233l-.0246-.012c-.0144-.0063-.0289-.0132-.0447-.0189l-.0252-.0088c-.0151-.0057-.03-.0107-.046-.0151l-.0271-.007-.0447-.01-.0328-.0045c-.0132-.0025-.027-.0037-.0409-.005l-.04-.0025-.0271-.0013H56.1674a.7772.7772,0,0,0-.7774.7762v17.39a.7767.7767,0,0,0,.7774.7755h2.7991a.7768.7768,0,0,0,.778-.7755V55.6053l7.9788,10.776a.7687.7687,0,0,0,.1972.1915l.0082.0063c.0157.01.0315.02.0479.029l.022.0119.0372.0183.0378.0158.0233.0088c.0183.0063.0353.012.0529.017l.0114.0025a.7635.7635,0,0,0,.199.0265h2.7991a.7763.7763,0,0,0,.7774-.7755v-17.39a.7768.7768,0,0,0-.7774-.7762"/><path class="a" d="M45.143,62.3548H37.5365V48.5441a.7766.7766,0,0,0-.7767-.7767h-2.8a.7772.7772,0,0,0-.7774.7767v17.389A.7715.7715,0,0,0,33.4,66.47l.0107.0119.0114.0107a.7717.7717,0,0,0,.5367.2168H45.143a.7768.7768,0,0,0,.7762-.7775v-2.8a.7767.7767,0,0,0-.7762-.7774"/><path class="a" d="M86.6185,52.122a.7764.7764,0,0,0,.7762-.7774V48.5455a.7769.7769,0,0,0-.7762-.778H75.4343a.7735.7735,0,0,0-.5392.2192l-.0089.0082-.0125.0139a.773.773,0,0,0-.2155.5355V65.9332a.7711.7711,0,0,0,.2173.5368l.0107.0119.0114.01a.7711.7711,0,0,0,.5367.2174H86.6185a.7768.7768,0,0,0,.7762-.7774v-2.8a.7768.7768,0,0,0-.7762-.7774H79.0127v-2.94h7.6058a.7764.7764,0,0,0,.7762-.7774V55.8389a.7769.7769,0,0,0-.7762-.778H79.0127V52.122Z"/></g></g></g>
</svg>
